<?xml version="1.0" encoding="UTF-8"?>
<svg xmlns="http://www.w3.org/2000/svg" xmlns:xlink="http://www.w3.org/1999/xlink" width="30pt" height="30.000001pt" viewBox="0 0 30 30.000001" version="1.2">
<defs>
<clipPath id="clip1">
  <path d="M 6 0 L 22 0 L 22 27.703125 L 6 27.703125 Z M 6 0 "/>
</clipPath>
<clipPath id="clip2">
  <path d="M 1.832031 8 L 6 8 L 6 20 L 1.832031 20 Z M 1.832031 8 "/>
</clipPath>
<clipPath id="clip3">
  <path d="M 23 8 L 26.40625 8 L 26.40625 20 L 23 20 Z M 23 8 "/>
</clipPath>
</defs>
<g id="surface1">
<g clip-path="url(#clip1)" clip-rule="nonzero">
<path style=" stroke:none;fill-rule:nonzero;fill:rgb(64.309692%,77.648926%,22.349548%);fill-opacity:1;" d="M 9.140625 -0.761719 L 10.441406 1.542969 C 8.019531 2.738281 6.347656 5.03125 6.347656 7.714844 L 21.984375 7.714844 C 21.984375 5.042969 20.308594 2.742188 17.886719 1.542969 L 19.191406 -0.761719 C 19.191406 -0.761719 19.285156 -0.851562 19.097656 -0.945312 C 19.003906 -1.039062 18.910156 -0.851562 18.910156 -0.851562 L 17.515625 1.449219 C 16.417969 0.964844 15.269531 0.71875 14.070312 0.714844 C 12.871094 0.71875 11.722656 0.964844 10.625 1.449219 L 9.230469 -0.851562 C 9.230469 -0.851562 9.140625 -0.945312 9.046875 -0.945312 C 9.054688 -0.871094 9.085938 -0.808594 9.136719 -0.757812 Z M 10.453125 3.75 C 10.8125 3.75 11.195312 4.109375 11.195312 4.488281 C 11.195312 4.867188 10.835938 5.226562 10.453125 5.226562 C 10.246094 5.226562 10.070312 5.15625 9.921875 5.011719 C 9.777344 4.867188 9.703125 4.691406 9.707031 4.488281 C 9.703125 4.285156 9.777344 4.109375 9.921875 3.964844 C 10.070312 3.820312 10.246094 3.75 10.453125 3.75 Z M 17.898438 3.75 C 18.261719 3.75 18.640625 4.109375 18.640625 4.488281 C 18.640625 4.867188 18.28125 5.226562 17.898438 5.226562 C 17.691406 5.226562 17.515625 5.15625 17.367188 5.011719 C 17.222656 4.867188 17.152344 4.691406 17.152344 4.488281 C 17.152344 4.285156 17.222656 4.109375 17.367188 3.964844 C 17.515625 3.820312 17.691406 3.75 17.898438 3.75 Z M 6.253906 8.636719 L 6.253906 20.425781 C 6.253906 20.980469 6.996094 21.808594 7.554688 21.808594 L 9.417969 21.808594 L 9.417969 25.859375 C 9.417969 26.875 10.164062 27.703125 11.09375 27.703125 C 12.023438 27.703125 12.769531 26.875 12.769531 25.859375 L 12.769531 21.808594 L 15.464844 21.808594 L 15.464844 25.859375 C 15.464844 26.871094 16.210938 27.703125 17.140625 27.703125 C 18.070312 27.703125 18.816406 26.871094 18.816406 25.859375 L 18.816406 21.808594 L 20.679688 21.808594 C 21.238281 21.808594 21.980469 21.070312 21.980469 20.425781 L 21.980469 8.636719 Z M 6.253906 8.636719 "/>
</g>
<g clip-path="url(#clip2)" clip-rule="nonzero">
<path style=" stroke:none;fill-rule:nonzero;fill:rgb(64.309692%,77.648926%,22.349548%);fill-opacity:1;" d="M 3.644531 8.359375 C 4.578125 8.359375 5.320312 9.1875 5.320312 10.203125 L 5.320312 17.203125 C 5.320312 18.214844 4.578125 19.042969 3.644531 19.042969 C 2.714844 19.042969 1.972656 18.214844 1.972656 17.203125 L 1.972656 10.203125 C 1.972656 9.1875 2.714844 8.359375 3.644531 8.359375 Z M 3.644531 8.359375 "/>
</g>
<g clip-path="url(#clip3)" clip-rule="nonzero">
<path style=" stroke:none;fill-rule:nonzero;fill:rgb(64.309692%,77.648926%,22.349548%);fill-opacity:1;" d="M 24.683594 8.359375 C 25.613281 8.359375 26.355469 9.1875 26.355469 10.203125 L 26.355469 17.203125 C 26.355469 18.214844 25.613281 19.042969 24.683594 19.042969 C 23.75 19.042969 23.007812 18.214844 23.007812 17.203125 L 23.007812 10.203125 C 23.007812 9.1875 23.75 8.359375 24.683594 8.359375 Z M 24.683594 8.359375 "/>
</g>
</g>
</svg>
