<?xml version="1.0" encoding="UTF-8"?>
<svg xmlns="http://www.w3.org/2000/svg" xmlns:xlink="http://www.w3.org/1999/xlink" width="30pt" height="30.000001pt" viewBox="0 0 30 30.000001" version="1.2">
<defs>
<clipPath id="clip1">
  <path d="M 1.828125 0 L 27.757812 0 L 27.757812 29 L 1.828125 29 Z M 1.828125 0 "/>
</clipPath>
</defs>
<g id="surface1">
<g clip-path="url(#clip1)" clip-rule="nonzero">
<path style=" stroke:none;fill-rule:nonzero;fill:rgb(54.899597%,78.42865%,29.40979%);fill-opacity:1;" d="M 13.597656 0.386719 C 14.308594 -0.0234375 15.21875 -0.0234375 15.910156 0.386719 L 26.546875 6.476562 C 27.210938 6.855469 27.65625 7.609375 27.652344 8.386719 L 27.652344 20.597656 C 27.65625 21.410156 27.167969 22.179688 26.464844 22.550781 L 15.886719 28.613281 C 15.519531 28.820312 15.125 28.917969 14.703125 28.90625 C 14.28125 28.894531 13.894531 28.773438 13.535156 28.546875 L 10.363281 26.683594 C 10.144531 26.550781 9.902344 26.449219 9.75 26.234375 C 9.886719 26.050781 10.125 26.027344 10.320312 25.945312 C 10.761719 25.804688 11.167969 25.585938 11.574219 25.351562 C 11.675781 25.28125 11.800781 25.308594 11.898438 25.371094 L 14.605469 26.964844 C 14.800781 27.074219 14.996094 26.925781 15.160156 26.832031 L 25.546875 20.878906 C 25.675781 20.816406 25.746094 20.675781 25.738281 20.535156 L 25.738281 8.441406 C 25.75 8.277344 25.660156 8.128906 25.515625 8.066406 L 14.960938 2.03125 C 14.824219 1.933594 14.6875 1.933594 14.546875 2.027344 L 4.011719 8.078125 C 3.867188 8.144531 3.769531 8.289062 3.789062 8.453125 L 3.789062 20.542969 C 3.777344 20.6875 3.851562 20.820312 3.980469 20.882812 L 6.796875 22.496094 C 7.324219 22.789062 7.972656 22.949219 8.554688 22.738281 C 8.816406 22.636719 9.027344 22.472656 9.183594 22.238281 C 9.34375 22.003906 9.421875 21.746094 9.421875 21.464844 L 9.421875 9.441406 C 9.410156 9.265625 9.578125 9.117188 9.746094 9.136719 L 11.101562 9.136719 C 11.277344 9.132812 11.417969 9.324219 11.394531 9.503906 L 11.390625 21.597656 C 11.390625 22.671875 10.957031 23.839844 9.980469 24.367188 C 8.773438 25 7.28125 24.867188 6.089844 24.257812 L 3.0625 22.558594 C 2.351562 22.199219 1.875 21.417969 1.878906 20.605469 L 1.878906 8.394531 C 1.882812 7.992188 1.984375 7.617188 2.1875 7.269531 C 2.394531 6.921875 2.671875 6.652344 3.019531 6.460938 Z M 16.664062 8.851562 C 18.199219 8.757812 19.847656 8.789062 21.230469 9.558594 C 22.300781 10.148438 22.894531 11.386719 22.914062 12.597656 C 22.886719 12.757812 22.71875 12.851562 22.566406 12.839844 C 22.121094 12.835938 21.671875 12.84375 21.226562 12.835938 C 21.035156 12.84375 20.925781 12.664062 20.902344 12.496094 C 20.773438 11.917969 20.464844 11.34375 19.925781 11.066406 C 19.105469 10.644531 18.148438 10.667969 17.253906 10.675781 C 16.597656 10.710938 15.894531 10.769531 15.339844 11.160156 C 14.910156 11.457031 14.78125 12.0625 14.933594 12.535156 C 15.078125 12.882812 15.472656 12.992188 15.792969 13.097656 C 17.648438 13.589844 19.609375 13.550781 21.429688 14.1875 C 22.183594 14.453125 22.917969 14.964844 23.175781 15.765625 C 23.511719 16.839844 23.367188 18.121094 22.617188 18.984375 C 22.007812 19.691406 21.121094 20.070312 20.234375 20.289062 C 19.054688 20.554688 17.835938 20.558594 16.636719 20.441406 C 15.511719 20.3125 14.34375 20.011719 13.476562 19.234375 C 12.734375 18.578125 12.371094 17.558594 12.40625 16.574219 C 12.414062 16.40625 12.578125 16.292969 12.734375 16.304688 L 14.070312 16.304688 C 14.25 16.292969 14.382812 16.449219 14.390625 16.621094 C 14.476562 17.164062 14.679688 17.753906 15.152344 18.070312 C 16.066406 18.667969 17.210938 18.625 18.257812 18.644531 C 19.125 18.605469 20.097656 18.59375 20.804688 18.011719 C 21.179688 17.679688 21.289062 17.125 21.1875 16.644531 C 21.078125 16.242188 20.652344 16.054688 20.296875 15.921875 C 18.46875 15.335938 16.480469 15.546875 14.667969 14.882812 C 13.933594 14.617188 13.222656 14.117188 12.941406 13.351562 C 12.546875 12.265625 12.726562 10.921875 13.558594 10.089844 C 14.359375 9.261719 15.535156 8.941406 16.648438 8.828125 Z M 16.664062 8.851562 "/>
</g>
</g>
</svg>
