<?xml version="1.0" encoding="UTF-8"?>
<svg xmlns="http://www.w3.org/2000/svg" xmlns:xlink="http://www.w3.org/1999/xlink" width="30pt" height="30.000001pt" viewBox="0 0 30 30.000001" version="1.2">
<defs>
<clipPath id="clip1">
  <path d="M 1.433594 4 L 25 4 L 25 29.03125 L 1.433594 29.03125 Z M 1.433594 4 "/>
</clipPath>
<clipPath id="clip2">
  <path d="M 5 4 L 28 4 L 28 29.03125 L 5 29.03125 Z M 5 4 "/>
</clipPath>
<clipPath id="clip3">
  <path d="M 1.433594 0 L 28 0 L 28 18 L 1.433594 18 Z M 1.433594 0 "/>
</clipPath>
</defs>
<g id="surface1">
<g clip-path="url(#clip1)" clip-rule="nonzero">
<path style=" stroke:none;fill-rule:nonzero;fill:rgb(89.7995%,35.688782%,17.649841%);fill-opacity:1;" d="M 16.625 4.46875 L 16.625 8.933594 L 24.207031 13.402344 L 24.207031 8.933594 Z M 1.457031 8.933594 L 1.457031 13.402344 L 5.25 15.632812 L 5.25 11.167969 Z M 12.832031 11.167969 L 9.039062 13.402344 L 9.039062 26.800781 L 12.832031 29.035156 L 12.832031 20.101562 L 16.625 22.335938 L 16.625 17.867188 L 12.832031 15.632812 Z M 12.832031 11.167969 "/>
</g>
<g clip-path="url(#clip2)" clip-rule="nonzero">
<path style=" stroke:none;fill-rule:nonzero;fill:rgb(92.939758%,55.688477%,14.118958%);fill-opacity:1;" d="M 16.625 4.46875 L 5.25 11.167969 L 5.25 15.632812 L 12.832031 11.167969 L 12.832031 15.632812 L 16.625 13.402344 Z M 27.996094 6.699219 L 24.207031 8.933594 L 24.207031 13.402344 L 27.996094 11.167969 Z M 20.414062 15.632812 L 16.625 17.867188 L 16.625 22.335938 L 20.414062 20.101562 Z M 16.625 22.335938 L 12.832031 20.101562 L 12.832031 29.035156 L 16.625 26.800781 Z M 16.625 22.335938 "/>
</g>
<g clip-path="url(#clip3)" clip-rule="nonzero">
<path style=" stroke:none;fill-rule:nonzero;fill:rgb(97.24884%,74.899292%,23.529053%);fill-opacity:1;" d="M 16.625 0 L 1.457031 8.933594 L 5.25 11.167969 L 16.625 4.46875 L 24.207031 8.933594 L 27.996094 6.699219 Z M 16.625 13.402344 L 12.832031 15.632812 L 16.625 17.867188 L 20.414062 15.632812 Z M 16.625 13.402344 "/>
</g>
</g>
</svg>
