<?xml version="1.0" encoding="UTF-8"?>
<svg xmlns="http://www.w3.org/2000/svg" xmlns:xlink="http://www.w3.org/1999/xlink" width="30pt" height="30.000001pt" viewBox="0 0 30 30.000001" version="1.2">
<defs>
<clipPath id="clip1">
  <path d="M 7 0.726562 L 22 0.726562 L 22 28.304688 L 7 28.304688 Z M 7 0.726562 "/>
</clipPath>
</defs>
<g id="surface1">
<path style=" stroke:none;fill-rule:nonzero;fill:rgb(30.589294%,47.059631%,58.81958%);fill-opacity:1;" d="M 12.480469 15.351562 C 12.480469 15.351562 11.765625 15.792969 12.980469 15.921875 C 14.445312 16.109375 15.226562 16.078125 16.847656 15.761719 C 16.847656 15.761719 17.285156 16.046875 17.875 16.269531 C 14.230469 17.847656 9.613281 16.171875 12.480469 15.351562 Z M 12.015625 13.296875 C 12.015625 13.296875 11.234375 13.898438 12.449219 14.023438 C 14.042969 14.183594 15.289062 14.214844 17.441406 13.773438 C 17.441406 13.773438 17.722656 14.089844 18.1875 14.246094 C 13.792969 15.574219 8.863281 14.371094 12.015625 13.296875 Z M 20.621094 16.898438 C 20.621094 16.898438 21.152344 17.339844 20.027344 17.6875 C 17.9375 18.320312 11.265625 18.511719 9.394531 17.6875 C 8.742188 17.40625 9.988281 16.992188 10.394531 16.929688 C 10.796875 16.835938 11.015625 16.835938 11.015625 16.835938 C 10.300781 16.332031 6.246094 17.878906 8.957031 18.320312 C 16.410156 19.554688 22.554688 17.785156 20.621094 16.898438 Z M 12.824219 11.148438 C 12.824219 11.148438 9.425781 11.972656 11.609375 12.253906 C 12.546875 12.382812 14.382812 12.351562 16.101562 12.222656 C 17.503906 12.097656 18.90625 11.84375 18.90625 11.84375 C 18.90625 11.84375 18.40625 12.066406 18.0625 12.285156 C 14.601562 13.203125 7.960938 12.792969 9.863281 11.84375 C 11.484375 11.054688 12.824219 11.148438 12.824219 11.148438 Z M 18.90625 14.59375 C 22.398438 12.761719 20.777344 10.992188 19.65625 11.214844 C 19.375 11.277344 19.25 11.339844 19.25 11.339844 C 19.25 11.339844 19.34375 11.148438 19.5625 11.085938 C 21.773438 10.296875 23.519531 13.457031 18.84375 14.6875 C 18.84375 14.6875 18.875 14.65625 18.90625 14.59375 Z M 13.167969 19.585938 C 16.535156 19.804688 21.679688 19.457031 21.804688 17.847656 C 21.804688 17.847656 21.558594 18.480469 19.03125 18.953125 C 16.164062 19.488281 12.609375 19.425781 10.519531 19.078125 C 10.519531 19.078125 10.957031 19.457031 13.167969 19.585938 Z M 13.167969 19.585938 "/>
<g clip-path="url(#clip1)" clip-rule="nonzero">
<path style=" stroke:none;fill-rule:nonzero;fill:rgb(96.078491%,50.979614%,9.799194%);fill-opacity:1;" d="M 16.785156 0.726562 C 16.785156 0.726562 18.71875 2.714844 14.945312 5.714844 C 11.921875 8.148438 14.257812 9.539062 14.945312 11.117188 C 13.167969 9.507812 11.890625 8.085938 12.761719 6.757812 C 14.042969 4.800781 17.566406 3.851562 16.785156 0.726562 Z M 15.789062 9.792969 C 16.691406 10.835938 15.539062 11.78125 15.539062 11.78125 C 15.539062 11.78125 17.847656 10.582031 16.785156 9.097656 C 15.820312 7.675781 15.070312 6.980469 19.125 4.613281 C 19.125 4.613281 12.730469 6.222656 15.789062 9.792969 Z M 13.480469 26.753906 L 13.480469 23.660156 C 13.480469 22.871094 13.042969 22.332031 11.953125 22.332031 C 11.328125 22.332031 10.796875 22.492188 10.332031 22.679688 L 10.488281 23.25 C 10.828125 23.121094 11.265625 22.996094 11.734375 22.996094 C 12.328125 22.996094 12.605469 23.25 12.605469 23.753906 L 12.605469 24.164062 L 12.296875 24.164062 C 10.796875 24.164062 10.113281 24.734375 10.113281 25.648438 C 10.113281 26.40625 10.582031 26.847656 11.421875 26.847656 C 11.953125 26.847656 12.359375 26.597656 12.730469 26.28125 L 12.792969 26.753906 Z M 12.605469 25.746094 C 12.296875 26.027344 11.953125 26.1875 11.640625 26.1875 C 11.234375 26.1875 10.984375 25.933594 10.984375 25.492188 C 10.984375 25.050781 11.234375 24.734375 12.234375 24.734375 L 12.605469 24.734375 Z M 16.410156 26.753906 L 15.320312 26.753906 L 14.011719 22.425781 L 14.945312 22.425781 L 15.757812 25.082031 L 15.945312 25.871094 C 16.347656 24.734375 16.660156 23.566406 16.785156 22.425781 L 17.722656 22.425781 C 17.472656 23.847656 17.035156 25.398438 16.410156 26.753906 Z M 21.464844 26.753906 L 21.464844 23.660156 C 21.464844 22.871094 21.027344 22.332031 19.933594 22.332031 C 19.3125 22.332031 18.78125 22.492188 18.3125 22.679688 L 18.4375 23.25 C 18.8125 23.121094 19.25 22.996094 19.71875 22.996094 C 20.308594 22.996094 20.589844 23.25 20.589844 23.753906 L 20.589844 24.164062 L 20.277344 24.164062 C 18.78125 24.164062 18.09375 24.734375 18.09375 25.648438 C 18.09375 26.40625 18.53125 26.847656 19.375 26.847656 C 19.933594 26.847656 20.339844 26.597656 20.714844 26.28125 L 20.777344 26.753906 Z M 20.589844 25.746094 C 20.277344 26.027344 19.933594 26.1875 19.625 26.1875 C 19.21875 26.1875 18.96875 25.933594 18.96875 25.492188 C 18.96875 25.050781 19.21875 24.734375 20.214844 24.734375 L 20.589844 24.734375 Z M 9.144531 27.480469 C 8.898438 27.859375 8.523438 28.144531 8.054688 28.304688 L 7.648438 27.796875 C 7.960938 27.609375 8.273438 27.324219 8.398438 27.070312 C 8.523438 26.851562 8.554688 26.535156 8.554688 25.808594 L 8.554688 20.878906 L 9.488281 20.878906 L 9.488281 25.746094 C 9.488281 26.722656 9.394531 27.101562 9.144531 27.480469 Z M 9.144531 27.480469 "/>
</g>
</g>
</svg>
