<?xml version="1.0" encoding="UTF-8"?>
<svg xmlns="http://www.w3.org/2000/svg" xmlns:xlink="http://www.w3.org/1999/xlink" width="30pt" height="30.000001pt" viewBox="0 0 30 30.000001" version="1.2">
<defs>
<clipPath id="clip1">
  <path d="M 1.863281 0 L 27.855469 0 L 27.855469 29 L 1.863281 29 Z M 1.863281 0 "/>
</clipPath>
<clipPath id="clip2">
  <path d="M 1.863281 0 L 27.855469 0 L 27.855469 22 L 1.863281 22 Z M 1.863281 0 "/>
</clipPath>
<clipPath id="clip3">
  <path d="M 14 7 L 27.855469 7 L 27.855469 22 L 14 22 Z M 14 7 "/>
</clipPath>
</defs>
<g id="surface1">
<g clip-path="url(#clip1)" clip-rule="nonzero">
<path style=" stroke:none;fill-rule:evenodd;fill:rgb(15.689087%,20.779419%,57.649231%);fill-opacity:1;" d="M 14.113281 0.265625 C 14.574219 0.00390625 15.144531 0.00390625 15.605469 0.265625 C 17.890625 1.5625 24.765625 5.460938 27.050781 6.753906 C 27.511719 7.015625 27.796875 7.5 27.796875 8.027344 C 27.796875 10.617188 27.796875 18.414062 27.796875 21.003906 C 27.796875 21.53125 27.511719 22.015625 27.050781 22.277344 C 24.765625 23.570312 17.890625 27.472656 15.605469 28.765625 C 15.144531 29.027344 14.574219 29.027344 14.113281 28.765625 C 11.828125 27.472656 4.953125 23.570312 2.667969 22.277344 C 2.207031 22.015625 1.921875 21.53125 1.921875 21.007812 C 1.921875 18.414062 1.921875 10.617188 1.921875 8.027344 C 1.921875 7.503906 2.207031 7.019531 2.671875 6.753906 C 4.953125 5.460938 11.828125 1.5625 14.113281 0.265625 Z M 14.113281 0.265625 "/>
</g>
<g clip-path="url(#clip2)" clip-rule="nonzero">
<path style=" stroke:none;fill-rule:evenodd;fill:rgb(36.079407%,41.958618%,75.289917%);fill-opacity:1;" d="M 2.128906 21.671875 C 1.949219 21.429688 1.921875 21.195312 1.921875 20.882812 C 1.921875 18.308594 1.921875 10.554688 1.921875 7.976562 C 1.921875 7.457031 2.207031 6.976562 2.667969 6.714844 C 4.945312 5.425781 11.796875 1.550781 14.070312 0.261719 C 14.53125 0 15.15625 0.0078125 15.617188 0.265625 C 17.894531 1.554688 24.722656 5.398438 26.996094 6.6875 C 27.179688 6.789062 27.320312 6.917969 27.445312 7.082031 Z M 2.128906 21.671875 "/>
</g>
<path style=" stroke:none;fill-rule:evenodd;fill:rgb(100%,100%,100%);fill-opacity:1;" d="M 14.859375 4.882812 C 20.121094 4.882812 24.390625 9.199219 24.390625 14.515625 C 24.390625 19.832031 20.121094 24.148438 14.859375 24.148438 C 9.597656 24.148438 5.328125 19.832031 5.328125 14.515625 C 5.328125 9.199219 9.597656 4.882812 14.859375 4.882812 Z M 14.859375 9.699219 C 17.488281 9.699219 19.625 11.859375 19.625 14.515625 C 19.625 17.171875 17.488281 19.332031 14.859375 19.332031 C 12.230469 19.332031 10.09375 17.171875 10.09375 14.515625 C 10.09375 11.859375 12.230469 9.699219 14.859375 9.699219 Z M 14.859375 9.699219 "/>
<g clip-path="url(#clip3)" clip-rule="nonzero">
<path style=" stroke:none;fill-rule:evenodd;fill:rgb(22.349548%,28.62854%,67.059326%);fill-opacity:1;" d="M 27.445312 7.089844 C 27.796875 7.421875 27.789062 7.921875 27.789062 8.316406 C 27.789062 10.925781 27.769531 18.355469 27.796875 20.964844 C 27.796875 21.238281 27.710938 21.523438 27.574219 21.738281 L 14.582031 14.515625 Z M 27.445312 7.089844 "/>
</g>
</g>
</svg>
