<?xml version="1.0" encoding="UTF-8"?>
<svg xmlns="http://www.w3.org/2000/svg" xmlns:xlink="http://www.w3.org/1999/xlink" width="30pt" height="30.000001pt" viewBox="0 0 30 30.000001" version="1.2">
<defs>
<clipPath id="clip1">
  <path d="M 1.28125 10 L 6 10 L 6 19 L 1.28125 19 Z M 1.28125 10 "/>
</clipPath>
<clipPath id="clip2">
  <path d="M 23 12 L 28.863281 12 L 28.863281 18 L 23 18 Z M 23 12 "/>
</clipPath>
</defs>
<g id="surface1">
<g clip-path="url(#clip1)" clip-rule="nonzero">
<path style=" stroke:none;fill-rule:evenodd;fill:rgb(0%,30.198669%,25.099182%);fill-opacity:1;" d="M 5.917969 10.503906 L 5.917969 17.832031 C 5.136719 17.976562 4.730469 18.035156 4.109375 18.035156 C 2.25 18.035156 1.28125 17.203125 1.28125 15.613281 C 1.28125 14.078125 2.308594 13.082031 3.898438 13.082031 C 4.144531 13.082031 4.332031 13.101562 4.5625 13.160156 L 4.5625 10.503906 Z M 4.5625 14.371094 C 4.382812 14.3125 4.234375 14.292969 4.046875 14.292969 C 3.277344 14.292969 2.832031 14.761719 2.832031 15.582031 C 2.832031 16.382812 3.257812 16.824219 4.039062 16.824219 C 4.207031 16.824219 4.34375 16.816406 4.5625 16.785156 Z M 4.5625 14.371094 "/>
</g>
<path style=" stroke:none;fill-rule:evenodd;fill:rgb(0%,30.198669%,25.099182%);fill-opacity:1;" d="M 8.234375 12.847656 L 8.234375 16.683594 C 8.234375 17.882812 8.144531 18.550781 7.878906 19.046875 C 7.632812 19.527344 7.308594 19.828125 6.636719 20.164062 L 5.226562 19.496094 C 5.894531 19.183594 6.222656 18.910156 6.429688 18.488281 C 6.648438 18.058594 6.714844 17.472656 6.714844 16.160156 L 6.714844 12.847656 Z M 8.234375 12.847656 "/>
<path style=" stroke:none;fill-rule:evenodd;fill:rgb(0%,30.198669%,25.099182%);fill-opacity:1;" d="M 9.238281 13.328125 C 9.898438 13.007812 10.527344 12.867188 11.214844 12.867188 C 11.980469 12.867188 12.480469 13.078125 12.703125 13.488281 C 12.828125 13.71875 12.871094 14.019531 12.871094 14.660156 L 12.871094 17.792969 C 12.203125 17.890625 11.359375 17.964844 10.742188 17.964844 C 9.492188 17.964844 8.933594 17.511719 8.933594 16.511719 C 8.933594 15.429688 9.675781 14.929688 11.503906 14.769531 L 11.503906 14.433594 C 11.503906 14.152344 11.367188 14.050781 10.992188 14.050781 C 10.441406 14.050781 9.824219 14.210938 9.242188 14.519531 Z M 11.574219 15.78125 C 10.585938 15.878906 10.265625 16.039062 10.265625 16.441406 C 10.265625 16.742188 10.449219 16.882812 10.855469 16.882812 C 11.078125 16.882812 11.28125 16.863281 11.574219 16.8125 Z M 11.574219 15.78125 "/>
<path style=" stroke:none;fill-rule:evenodd;fill:rgb(0%,30.198669%,25.099182%);fill-opacity:1;" d="M 13.691406 13.222656 C 14.570312 12.980469 15.296875 12.867188 16.03125 12.867188 C 16.796875 12.867188 17.347656 13.050781 17.675781 13.40625 C 17.984375 13.742188 18.082031 14.109375 18.082031 14.890625 L 18.082031 17.964844 L 16.59375 17.964844 L 16.59375 14.953125 C 16.59375 14.351562 16.398438 14.128906 15.867188 14.128906 C 15.664062 14.128906 15.480469 14.148438 15.179688 14.242188 L 15.179688 17.964844 L 13.691406 17.964844 Z M 13.691406 13.222656 "/>
<path style=" stroke:none;fill-rule:evenodd;fill:rgb(0%,30.198669%,25.099182%);fill-opacity:1;" d="M 18.765625 18.617188 C 19.296875 18.898438 19.832031 19.03125 20.394531 19.03125 C 21.390625 19.03125 21.816406 18.753906 21.816406 17.769531 L 21.816406 17.738281 C 21.519531 17.886719 21.222656 17.949219 20.828125 17.949219 C 19.496094 17.949219 18.664062 17.054688 18.664062 15.636719 C 18.664062 13.871094 19.902344 12.875 22.125 12.875 C 22.777344 12.875 23.378906 12.945312 24.109375 13.097656 L 23.589844 14.214844 C 23.183594 14.136719 23.554688 14.203125 23.25 14.175781 L 23.25 14.335938 L 23.269531 14.992188 L 23.28125 15.835938 C 23.289062 16.050781 23.289062 16.261719 23.300781 16.472656 L 23.300781 16.894531 C 23.300781 18.226562 23.191406 18.710938 22.863281 19.222656 C 22.390625 19.980469 21.570312 20.351562 20.40625 20.351562 C 19.8125 20.351562 19.296875 20.261719 18.765625 20.050781 Z M 21.785156 14.125 L 21.628906 14.125 C 21.332031 14.117188 20.984375 14.195312 20.75 14.347656 C 20.382812 14.558594 20.195312 14.941406 20.195312 15.484375 C 20.195312 16.257812 20.570312 16.703125 21.242188 16.703125 C 21.449219 16.703125 21.621094 16.664062 21.816406 16.601562 L 21.816406 16.070312 C 21.816406 15.886719 21.804688 15.683594 21.804688 15.472656 L 21.796875 14.757812 L 21.785156 14.246094 Z M 21.785156 14.125 "/>
<g clip-path="url(#clip2)" clip-rule="nonzero">
<path style=" stroke:none;fill-rule:evenodd;fill:rgb(0%,30.198669%,25.099182%);fill-opacity:1;" d="M 26.523438 12.847656 C 28.117188 12.847656 29.089844 13.808594 29.089844 15.367188 C 29.089844 16.964844 28.078125 17.964844 26.457031 17.964844 C 24.863281 17.964844 23.878906 17.003906 23.878906 15.457031 C 23.878906 13.847656 24.894531 12.847656 26.523438 12.847656 Z M 26.488281 16.734375 C 27.101562 16.734375 27.464844 16.246094 27.464844 15.402344 C 27.464844 14.570312 27.113281 14.074219 26.5 14.074219 C 25.867188 14.074219 25.503906 14.558594 25.503906 15.402344 C 25.503906 16.246094 25.871094 16.734375 26.488281 16.734375 Z M 26.488281 16.734375 "/>
</g>
</g>
</svg>
