<?xml version="1.0" encoding="UTF-8"?>
<svg xmlns="http://www.w3.org/2000/svg" xmlns:xlink="http://www.w3.org/1999/xlink" width="30pt" height="30.000001pt" viewBox="0 0 30 30.000001" version="1.2">
<defs>
<clipPath id="clip1">
  <path d="M 0.484375 0 L 29.515625 0 L 29.515625 29.03125 L 0.484375 29.03125 Z M 0.484375 0 "/>
</clipPath>
<clipPath id="clip2">
  <path d="M 23 10 L 29.515625 10 L 29.515625 18 L 23 18 Z M 23 10 "/>
</clipPath>
<clipPath id="clip3">
  <path d="M 0.484375 10 L 7 10 L 7 17 L 0.484375 17 Z M 0.484375 10 "/>
</clipPath>
</defs>
<g id="surface1">
<g clip-path="url(#clip1)" clip-rule="nonzero">
<path style=" stroke:none;fill-rule:nonzero;fill:rgb(94.898987%,94.898987%,94.898987%);fill-opacity:1;" d="M 29.515625 14.515625 C 29.515625 22.53125 23.015625 29.03125 15 29.03125 C 7.601562 29.03125 1.5 23.5 0.597656 16.347656 C 0.523438 15.746094 0.484375 15.136719 0.484375 14.515625 C 0.484375 13.378906 0.613281 12.273438 0.859375 11.210938 C 2.355469 4.789062 8.121094 0 15 0 C 21.863281 0 27.613281 4.761719 29.128906 11.164062 C 29.324219 12.003906 29.449219 12.867188 29.496094 13.753906 C 29.507812 14.007812 29.515625 14.261719 29.515625 14.515625 Z M 29.515625 14.515625 "/>
</g>
<path style=" stroke:none;fill-rule:nonzero;fill:rgb(23.139954%,52.938843%,22.349548%);fill-opacity:1;" d="M 14.273438 15.683594 L 14.273438 11.90625 L 11.003906 10.019531 L 7.738281 11.90625 L 7.738281 15.683594 L 11.003906 17.570312 Z M 14.273438 15.683594 "/>
<g clip-path="url(#clip2)" clip-rule="nonzero">
<path style=" stroke:none;fill-rule:nonzero;fill:rgb(19.999695%,19.999695%,19.999695%);fill-opacity:1;" d="M 27.144531 15.109375 L 29.277344 16.339844 L 27.144531 17.570312 L 23.878906 15.683594 L 23.878906 11.90625 L 27.144531 10.019531 L 29.128906 11.164062 C 29.324219 12.003906 29.449219 12.867188 29.496094 13.753906 L 28.285156 14.453125 L 28.285156 13.136719 L 27.144531 12.480469 L 26.007812 13.136719 L 26.007812 14.453125 Z M 27.144531 15.109375 "/>
</g>
<path style=" stroke:none;fill-rule:nonzero;fill:rgb(39.99939%,62.748718%,37.649536%);fill-opacity:1;" d="M 27.78125 14.160156 L 27.78125 13.429688 L 27.144531 13.0625 L 26.511719 13.429688 L 26.511719 14.160156 L 27.144531 14.527344 Z M 27.78125 14.160156 "/>
<g clip-path="url(#clip3)" clip-rule="nonzero">
<path style=" stroke:none;fill-rule:nonzero;fill:rgb(19.999695%,19.999695%,19.999695%);fill-opacity:1;" d="M 6.191406 11.90625 L 6.191406 16.882812 L 4.011719 15.640625 L 4.011719 13.089844 L 2.925781 12.460938 L 1.835938 13.089844 L 1.835938 15.640625 L 0.597656 16.347656 C 0.523438 15.746094 0.484375 15.136719 0.484375 14.515625 C 0.484375 13.378906 0.613281 12.273438 0.859375 11.210938 L 2.925781 10.019531 Z M 6.191406 11.90625 "/>
</g>
<path style=" stroke:none;fill-rule:nonzero;fill:rgb(42.749023%,65.489197%,36.468506%);fill-opacity:1;" d="M 11.003906 10.019531 L 14.273438 15.679688 L 11.003906 17.566406 L 7.738281 11.90625 Z M 11.003906 10.019531 "/>
<path style=" stroke:none;fill-rule:nonzero;fill:rgb(33.329773%,63.919067%,26.669312%);fill-opacity:1;" d="M 7.738281 15.683594 L 8.859375 13.851562 L 7.738281 11.90625 Z M 7.738281 15.683594 "/>
<path style=" stroke:none;fill-rule:nonzero;fill:rgb(38.819885%,61.569214%,34.118652%);fill-opacity:1;" d="M 13.183594 13.792969 L 14.273438 11.90625 L 11.003906 10.019531 Z M 13.183594 13.792969 "/>
<path style=" stroke:none;fill-rule:nonzero;fill:rgb(19.999695%,19.999695%,19.999695%);fill-opacity:1;" d="M 20.132812 5.644531 L 20.132812 10.652344 L 19.039062 10.019531 L 15.769531 11.90625 L 15.769531 15.683594 L 19.039062 17.570312 L 22.308594 15.683594 L 22.308594 6.808594 Z M 20.128906 14.421875 L 19.039062 15.054688 L 17.949219 14.421875 L 17.949219 13.164062 L 19.039062 12.535156 L 20.128906 13.164062 Z M 20.128906 14.421875 "/>
<path style=" stroke:none;fill-rule:nonzero;fill:rgb(39.99939%,62.748718%,37.649536%);fill-opacity:1;" d="M 16.484375 20.339844 C 16.484375 20.339844 16.417969 19.789062 15.828125 19.789062 C 15.238281 19.789062 14.835938 19.867188 14.835938 20.191406 C 14.835938 20.519531 15.980469 20.519531 16.417969 20.648438 C 16.855469 20.777344 17.238281 21.109375 17.046875 21.699219 C 16.855469 22.289062 16.265625 22.355469 15.355469 22.355469 C 14.441406 22.355469 14.238281 21.597656 14.238281 21.300781 L 14.75 21.300781 C 14.75 21.300781 14.6875 21.765625 15.289062 21.839844 C 15.890625 21.917969 16.46875 21.960938 16.546875 21.496094 C 16.648438 20.878906 14.597656 21.1875 14.417969 20.585938 C 14.265625 20.074219 14.351562 19.402344 15.378906 19.300781 C 16.40625 19.199219 16.96875 19.652344 16.96875 20.328125 Z M 16.484375 20.339844 "/>
<path style=" stroke:none;fill-rule:nonzero;fill:rgb(39.99939%,62.748718%,37.649536%);fill-opacity:1;" d="M 11.523438 22.746094 L 12.660156 23.398438 C 13.230469 23.730469 13.941406 23.316406 13.941406 22.660156 L 13.941406 19.398438 L 13.480469 19.398438 L 13.480469 22.53125 C 13.480469 22.890625 13.089844 23.117188 12.78125 22.9375 L 11.988281 22.480469 L 11.988281 19.136719 L 14.882812 17.464844 L 17.777344 19.136719 L 17.777344 22.480469 L 14.882812 24.148438 L 14.046875 23.667969 L 13.503906 23.886719 L 14.882812 24.683594 L 18.238281 22.746094 L 18.238281 18.871094 L 14.882812 16.929688 L 11.523438 18.871094 Z M 11.523438 22.746094 "/>
</g>
</svg>
